<svg width="14" height="17" viewBox="0 0 14 17" fill="none" xmlns="http://www.w3.org/2000/svg">
<path fill-rule="evenodd" clip-rule="evenodd" d="M7 0C5.34315 0 4 1.34315 4 3H1C0.447715 3 0 3.44772 0 4V16C0 16.5523 0.447715 17 1 17H13C13.5523 17 14 16.5523 14 16V4C14 3.44772 13.5523 3 13 3H10C10 1.34315 8.65685 0 7 0ZM8 5V6C8 6.55228 8.44772 7 9 7C9.55228 7 10 6.55228 10 6V5H12V15H2V5H4V6C4 6.55228 4.44772 7 5 7C5.55228 7 6 6.55228 6 6V5H8ZM8 3C8 2.44772 7.55228 2 7 2C6.44772 2 6 2.44772 6 3H8Z" fill="white"/>
</svg>
