<svg width="14" height="16" viewBox="0 0 14 16" fill="none" xmlns="http://www.w3.org/2000/svg">
<path fill-rule="evenodd" clip-rule="evenodd" d="M4 3C4 1.34315 5.34315 0 7 0C8.65685 0 10 1.34315 10 3H12H13C13.5523 3 14 3.44772 14 4C14 4.55228 13.5523 5 13 5H12.9132L11.9959 15.0905C11.9491 15.6056 11.5172 16 11 16H3C2.4828 16 2.05093 15.6056 2.00411 15.0905L1.08679 5H1C0.447715 5 0 4.55228 0 4C0 3.44772 0.447715 3 1 3H2H4ZM6 3H8C8 2.44772 7.55228 2 7 2C6.44772 2 6 2.44772 6 3ZM3.09503 5L3.91321 14H10.0868L10.905 5H3.09503Z" fill="#5BC6EA"/>
</svg>
