<svg width="14" height="16" viewBox="0 0 14 16" fill="none" xmlns="http://www.w3.org/2000/svg">
<path fill-rule="evenodd" clip-rule="evenodd" d="M6 1C6 0.447715 5.55228 0 5 0C4.44772 0 4 0.447715 4 1V2H1C0.447715 2 0 2.44772 0 3V15C0 15.5523 0.447715 16 1 16H13C13.5523 16 14 15.5523 14 15V3C14 2.44772 13.5523 2 13 2H10V1C10 0.447715 9.55229 0 9 0C8.44771 0 8 0.447715 8 1V2H6V1ZM8 5V4H6V5C6 5.55228 5.55228 6 5 6C4.44772 6 4 5.55228 4 5V4H2V14H12V4H10V5C10 5.55228 9.55229 6 9 6C8.44771 6 8 5.55228 8 5ZM5 9C5 9.55228 4.55228 10 4 10C3.44772 10 3 9.55228 3 9C3 8.44771 3.44772 8 4 8C4.55228 8 5 8.44771 5 9ZM7 10C7.55228 10 8 9.55228 8 9C8 8.44771 7.55228 8 7 8C6.44772 8 6 8.44771 6 9C6 9.55228 6.44772 10 7 10ZM11 9C11 9.55228 10.5523 10 10 10C9.44771 10 9 9.55228 9 9C9 8.44771 9.44771 8 10 8C10.5523 8 11 8.44771 11 9ZM4 13C4.55228 13 5 12.5523 5 12C5 11.4477 4.55228 11 4 11C3.44772 11 3 11.4477 3 12C3 12.5523 3.44772 13 4 13ZM8 12C8 12.5523 7.55228 13 7 13C6.44772 13 6 12.5523 6 12C6 11.4477 6.44772 11 7 11C7.55228 11 8 11.4477 8 12Z" fill="#5BC6EA"/>
</svg>
