<svg width="18" height="18" viewBox="0 0 18 18" fill="none" xmlns="http://www.w3.org/2000/svg">
<path fill-rule="evenodd" clip-rule="evenodd" d="M10.5155 0.0277336C9.90937 -0.108778 9.30733 0.27193 9.17082 0.878068C9.03431 1.48421 9.41501 2.08624 10.0212 2.22275C12.8757 2.86564 15.1255 5.11545 15.7683 7.96994C15.9048 8.57608 16.5068 8.9568 17.1129 8.82031C17.7191 8.68381 18.0998 8.08179 17.9633 7.47564C17.1296 3.77337 14.2178 0.861545 10.5155 0.0277336ZM3.6909 4.32963C3.50732 4.51887 3.35236 4.69653 3.2472 4.84376C1.42906 7.38905 2.22802 10.688 4.76587 13.2258C7.30371 15.7636 10.6028 16.5626 13.1483 14.7444C13.2955 14.6393 13.4731 14.4844 13.6623 14.3008L11.8052 13.2396L11.2658 13.779C10.673 14.3718 9.71802 14.6396 8.84432 14.2092C8.13574 13.8602 7.0197 13.1996 5.90596 12.0859C4.79223 10.9722 4.13159 9.85617 3.78253 9.14761C3.35211 8.27389 3.61996 7.31886 4.21278 6.72605L4.75211 6.18672L3.6909 4.32963ZM2.19335 2.64378C3.26694 1.56984 4.93395 1.96996 5.60408 3.14267L6.70565 5.07039C7.20907 5.95135 7.06057 7.06026 6.34309 7.77772L5.85668 8.26413C6.13969 8.81505 6.656 9.65394 7.49693 10.4948C8.33787 11.3358 9.17681 11.8521 9.72775 12.1351L10.2142 11.6486C10.9317 10.9312 12.0405 10.7827 12.9215 11.2861L14.8493 12.3876C16.022 13.0577 16.4222 14.7248 15.3481 15.7984C15.0879 16.0585 14.7743 16.348 14.456 16.5754C10.6665 19.2821 6.14188 17.7837 3.1749 14.8168C0.207928 11.8499 -1.29051 7.32536 1.41632 3.53594C1.6437 3.21762 1.93323 2.90398 2.19335 2.64378ZM9.25913 5.23194C9.53368 4.67457 10.2081 4.44531 10.7655 4.71986C11.8526 5.25541 12.7361 6.13892 13.2715 7.22616C13.546 7.78355 13.3167 8.45794 12.7593 8.73244C12.2019 9.00695 11.5275 8.77762 11.253 8.22023C10.9368 7.57802 10.4134 7.05461 9.7712 6.73827C9.21383 6.46371 8.98457 5.7893 9.25913 5.23194Z" fill="#5BC6EA"/>
</svg>
