<svg width="18" height="12" viewBox="0 0 18 12" fill="none" xmlns="http://www.w3.org/2000/svg">
<path fill-rule="evenodd" clip-rule="evenodd" d="M1 0C0.447715 0 0 0.447715 0 1V11C0 11.5523 0.447715 12 1 12H12C12.5523 12 13 11.5523 13 11V9.47703L16.6286 10.9285C16.9367 11.0517 17.2859 11.0141 17.5606 10.8281C17.8354 10.642 18 10.3318 18 10V2C18 1.66818 17.8354 1.35796 17.5606 1.17193C17.2859 0.985903 16.9367 0.948287 16.6286 1.07152L13 2.52297V1C13 0.447715 12.5523 0 12 0H1ZM2 10V2H11V4C11 4.33182 11.1646 4.64204 11.4394 4.82807C11.7141 5.0141 12.0633 5.05171 12.3714 4.92848L16 3.47703V8.52297L12.3714 7.07152C12.0633 6.94829 11.7141 6.9859 11.4394 7.17193C11.1646 7.35796 11 7.66818 11 8V10H2ZM4 5C4.55228 5 5 4.55228 5 4C5 3.44772 4.55228 3 4 3C3.44772 3 3 3.44772 3 4C3 4.55228 3.44772 5 4 5Z" fill="white"/>
</svg>
