<svg width="14" height="14" viewBox="0 0 14 14" fill="none" xmlns="http://www.w3.org/2000/svg">
<path fill-rule="evenodd" clip-rule="evenodd" d="M6 13C6 13.5523 6.44772 14 7 14C7.55228 14 8 13.5523 8 13V11C8.55228 11 9 10.5523 9 10C9 9.44771 8.55228 9 8 9L8 1C8 0.447715 7.55228 0 7 0C6.44771 0 6 0.447715 6 1L6 9C5.44772 9 5 9.44771 5 10C5 10.5523 5.44772 11 6 11V13ZM1 3C0.447715 3 0 3.44772 0 4C0 4.55228 0.447715 5 1 5V13C1 13.5523 1.44772 14 2 14C2.55228 14 3 13.5523 3 13V5C3.55228 5 4 4.55228 4 4C4 3.44772 3.55228 3 3 3V1C3 0.447715 2.55228 0 2 0C1.44772 0 1 0.447715 1 1V3ZM11 6C10.4477 6 10 6.44772 10 7C10 7.55228 10.4477 8 11 8V13C11 13.5523 11.4477 14 12 14C12.5523 14 13 13.5523 13 13V8C13.5523 8 14 7.55228 14 7C14 6.44772 13.5523 6 13 6V1C13 0.447715 12.5523 0 12 0C11.4477 0 11 0.447715 11 1V6Z" fill="#5BC6EA"/>
</svg>
