<svg width="16" height="16" viewBox="0 0 16 16" fill="none" xmlns="http://www.w3.org/2000/svg">
<path fill-rule="evenodd" clip-rule="evenodd" d="M7.00049 0C6.71097 0 6.43566 0.125477 6.24573 0.343993L5.31503 1.41479L3.80467 1.3446C3.52363 1.33154 3.25009 1.43747 3.05114 1.63641L1.63693 3.05063C1.43799 3.24957 1.33205 3.52311 1.34512 3.80416L1.41532 5.31468L0.344378 6.24454C0.125631 6.43448 0 6.70994 0 6.99963V8.99963C0 9.28936 0.125653 9.56484 0.344434 9.75477L1.41534 10.6845L1.34511 12.1966C1.33206 12.4777 1.438 12.7512 1.63693 12.9501L3.05114 14.3643C3.25029 14.5635 3.52418 14.6694 3.8055 14.6561L5.31517 14.5847L6.24553 15.6558C6.43546 15.8744 6.71086 16 7.00049 16H9.00049C9.29036 16 9.56596 15.8742 9.7559 15.6552L10.6849 14.5843L12.1961 14.6561C12.4775 14.6695 12.7514 14.5635 12.9506 14.3643L14.3649 12.9501C14.564 12.7509 14.67 12.4769 14.6566 12.1956L14.5848 10.6845L15.6556 9.75471C15.8744 9.56478 16 9.28932 16 8.99963V6.99963C16 6.70997 15.8744 6.43454 15.6557 6.2446L14.5849 5.31465L14.6566 3.80522C14.67 3.52382 14.5641 3.24983 14.3649 3.05063L12.9506 1.63641C12.7516 1.43742 12.478 1.33149 12.1969 1.34461L10.685 1.41519L9.7557 0.344516C9.56576 0.125686 9.29025 0 9.00049 0H7.00049ZM6.50696 3.09219L7.45626 2H8.5443L9.49226 3.09218C9.6929 3.32334 9.98835 3.44988 10.2941 3.43561L11.8488 3.36303L12.6379 4.15207L12.5641 5.70416C12.5495 6.0101 12.676 6.30584 12.9073 6.50668L14 7.45565V8.54357L12.9073 9.49236C12.676 9.69319 12.5495 9.98894 12.5641 10.2949L12.6379 11.8487L11.8492 12.6374L10.2949 12.5635C9.9888 12.549 9.6929 12.6756 9.49207 12.9071L8.54412 14H7.45644L6.50715 12.9071C6.30637 12.676 6.01077 12.5496 5.70494 12.564L4.15269 12.6375L3.36345 11.8482L3.43567 10.2933C3.44986 9.98768 3.32335 9.69237 3.09231 9.49179L2 8.54351V7.45571L3.09235 6.50725C3.32337 6.30666 3.44986 6.01136 3.43565 5.70574L3.36346 4.15252L4.15304 3.36295L5.70578 3.43511C6.01122 3.4493 6.30637 3.32297 6.50696 3.09219ZM7 7.99976C7 7.44747 7.44772 6.99976 8 6.99976C8.55228 6.99976 9 7.44747 9 7.99976C9 8.55204 8.55228 8.99976 8 8.99976C7.44772 8.99976 7 8.55204 7 7.99976ZM8 4.99976C6.34315 4.99976 5 6.3429 5 7.99976C5 9.65661 6.34315 10.9998 8 10.9998C9.65685 10.9998 11 9.65661 11 7.99976C11 6.3429 9.65685 4.99976 8 4.99976Z" fill="white"/>
</svg>
