<svg width="18" height="18" viewBox="0 0 18 18" fill="none" xmlns="http://www.w3.org/2000/svg">
<path fill-rule="evenodd" clip-rule="evenodd" d="M9 2C5.13401 2 2 5.13401 2 9C2 10.4614 2.44674 11.8155 3.21101 12.9368C3.35366 13.1461 3.41157 13.4017 3.37305 13.6521L3.19576 14.8042L4.34792 14.627C4.59826 14.5884 4.85389 14.6463 5.06319 14.789C6.18455 15.5533 7.53859 16 9 16C12.866 16 16 12.866 16 9C16 5.13401 12.866 2 9 2ZM0 9C0 4.02944 4.02944 0 9 0C13.9706 0 18 4.02944 18 9C18 13.9706 13.9706 18 9 18C7.26873 18 5.64929 17.5102 4.27563 16.6616L2.15208 16.9884C1.83724 17.0368 1.51814 16.9324 1.29289 16.7071C1.06764 16.4819 0.963186 16.1628 1.01163 15.8479L1.33839 13.7244C0.489769 12.3507 0 10.7313 0 9ZM9 8C9.55229 8 10 8.44771 10 9V12C10 12.5523 9.55229 13 9 13C8.44771 13 8 12.5523 8 12V9C8 8.44771 8.44771 8 9 8ZM9 7C9.55229 7 10 6.55228 10 6C10 5.44772 9.55229 5 9 5C8.44771 5 8 5.44772 8 6C8 6.55228 8.44771 7 9 7Z" fill="white"/>
</svg>
