<svg width="16" height="18" viewBox="0 0 16 18" fill="none" xmlns="http://www.w3.org/2000/svg">
<path fill-rule="evenodd" clip-rule="evenodd" d="M2.50098 12.998C1.12026 12.998 0.000976317 11.8788 0.000976257 10.498L0.000976125 7.49805C0.000976065 6.11733 1.12026 4.99805 2.50098 4.99805C3.88169 4.99805 5.00098 6.11733 5.00098 7.49805L5.00098 7.99805L6.00098 7.99805L6.00098 4.99805C6.00098 3.34119 7.34412 1.99805 9.00098 1.99805L9.209 1.99805C9.59478 1.11509 10.4758 0.498046 11.501 0.498046C12.8817 0.498046 14.001 1.61733 14.001 2.99805C14.001 4.37876 12.8817 5.49805 11.501 5.49805C10.4758 5.49805 9.59478 4.881 9.209 3.99805L9.00098 3.99805C8.44869 3.99805 8.00098 4.44576 8.00098 4.99805L8.00098 7.99805L11.209 7.99805C11.5948 7.11509 12.4758 6.49805 13.501 6.49805C14.8817 6.49805 16.001 7.61733 16.001 8.99805C16.001 10.3788 14.8817 11.498 13.501 11.498C12.4758 11.498 11.5948 10.881 11.209 9.99805L8.00098 9.99805L8.00098 12.998C8.00098 13.5503 8.44869 13.998 9.00098 13.998L9.209 13.998C9.59478 13.1151 10.4758 12.498 11.501 12.498C12.8817 12.498 14.001 13.6173 14.001 14.998C14.001 16.3788 12.8817 17.498 11.501 17.498C10.4758 17.498 9.59478 16.881 9.209 15.998L9.00098 15.998C7.34412 15.998 6.00098 14.6549 6.00098 12.998L6.00098 9.99805L5.00098 9.99805L5.00098 10.498C5.00098 11.8788 3.88169 12.998 2.50098 12.998ZM11.001 2.99805C11.001 3.27419 11.2248 3.49805 11.501 3.49805C11.7771 3.49805 12.001 3.27419 12.001 2.99805C12.001 2.7219 11.7771 2.49805 11.501 2.49805C11.2248 2.49805 11.001 2.7219 11.001 2.99805ZM2.00098 10.498C2.00098 10.7742 2.22483 10.998 2.50098 10.998C2.77712 10.998 3.00098 10.7742 3.00098 10.498L3.00098 7.49805C3.00098 7.2219 2.77712 6.99805 2.50098 6.99805C2.22483 6.99805 2.00098 7.2219 2.00098 7.49805L2.00098 10.498ZM11.001 14.998C11.001 15.2742 11.2248 15.498 11.501 15.498C11.7771 15.498 12.001 15.2742 12.001 14.998C12.001 14.7219 11.7771 14.498 11.501 14.498C11.2248 14.498 11.001 14.7219 11.001 14.998ZM13.501 9.49805C13.2248 9.49805 13.001 9.27419 13.001 8.99805C13.001 8.7219 13.2248 8.49805 13.501 8.49805C13.7771 8.49805 14.001 8.7219 14.001 8.99805C14.001 9.27419 13.7771 9.49805 13.501 9.49805Z" fill="white"/>
</svg>
