<svg width="20" height="12" viewBox="0 0 20 12" fill="none" xmlns="http://www.w3.org/2000/svg">
<path fill-rule="evenodd" clip-rule="evenodd" d="M8 1C8 0.447715 7.55228 0 7 0C6.44772 0 6 0.447715 6 1V11C6 11.5523 6.44772 12 7 12C7.55228 12 8 11.5523 8 11V1ZM4 3C4.55228 3 5 3.44772 5 4V8C5 8.55228 4.55228 9 4 9C3.44772 9 3 8.55228 3 8V4C3 3.44772 3.44772 3 4 3ZM16 3C16.5523 3 17 3.44772 17 4V8C17 8.55228 16.5523 9 16 9C15.4477 9 15 8.55228 15 8V4C15 3.44772 15.4477 3 16 3ZM10 2C10.5523 2 11 2.44772 11 3V9C11 9.55228 10.5523 10 10 10C9.44771 10 9 9.55228 9 9V3C9 2.44772 9.44771 2 10 2ZM14 2C14 1.44772 13.5523 1 13 1C12.4477 1 12 1.44772 12 2V10C12 10.5523 12.4477 11 13 11C13.5523 11 14 10.5523 14 10V2ZM20 6C20 6.55228 19.5523 7 19 7C18.4477 7 18 6.55228 18 6C18 5.44772 18.4477 5 19 5C19.5523 5 20 5.44772 20 6ZM1 7C1.55228 7 2 6.55228 2 6C2 5.44772 1.55228 5 1 5C0.447715 5 0 5.44772 0 6C0 6.55228 0.447715 7 1 7Z" fill="white"/>
</svg>
