<svg width="18" height="17" viewBox="0 0 18 17" fill="none" xmlns="http://www.w3.org/2000/svg">
<path fill-rule="evenodd" clip-rule="evenodd" d="M9.00007 0C9.35598 0 9.68506 0.18916 9.86418 0.4967L10.1228 0.940733C10.4008 1.41797 10.2392 2.03018 9.762 2.30815C9.52226 2.44778 9.24845 2.4765 9.00007 2.41001C8.75169 2.4765 8.47789 2.44778 8.23815 2.30814C7.76091 2.03018 7.59937 1.41797 7.87733 0.940733L8.13596 0.4967C8.31509 0.18916 8.64417 0 9.00007 0ZM7.17574 4.13218C7.65298 4.41014 7.81452 5.02236 7.53655 5.49959L7.27793 5.94362C7.13663 6.18623 6.89985 6.35825 6.62546 6.41767L6.12324 6.52643C5.58346 6.64331 5.05114 6.30049 4.93425 5.76072C4.81736 5.22095 5.16018 4.68862 5.69996 4.57173L5.77149 4.55624L5.80833 4.49299C6.0863 4.01576 6.69851 3.85422 7.17574 4.13218ZM10.8244 4.13218C11.3016 3.85422 11.9138 4.01576 12.1918 4.49299L12.2287 4.55624L12.3002 4.57173C12.84 4.68862 13.1828 5.22095 13.0659 5.76072C12.949 6.30049 12.4167 6.64331 11.8769 6.52643L11.3747 6.41767C11.1003 6.35825 10.8635 6.18623 10.7222 5.94362L10.4636 5.49959C10.1856 5.02236 10.3472 4.41015 10.8244 4.13218ZM2.73262 6.96358C2.87261 6.74791 2.92991 6.47863 2.87119 6.20747C2.7543 5.6677 2.22197 5.32488 1.6822 5.44176L1.17998 5.55052C0.832137 5.62584 0.550543 5.88036 0.440563 6.21885C0.330583 6.55733 0.408793 6.92876 0.645928 7.19416L0.988308 7.57734C1.35629 7.98917 1.98846 8.02472 2.40029 7.65674C2.60718 7.47188 2.7191 7.22035 2.73262 6.96358ZM15.129 6.20747C15.2458 5.6677 15.7782 5.32488 16.3179 5.44176L16.8202 5.55052C17.168 5.62584 17.4496 5.88036 17.5596 6.21885C17.6696 6.55733 17.5914 6.92876 17.3542 7.19416L17.0118 7.57734C16.6439 7.98917 16.0117 8.02472 15.5999 7.65674C15.393 7.47188 15.281 7.22035 15.2675 6.96358C15.1275 6.7479 15.0702 6.47863 15.129 6.20747ZM3.80675 9.2308C4.21859 8.86282 4.85075 8.89837 5.21873 9.3102L5.56111 9.69338C5.74818 9.90274 5.83862 10.1811 5.81034 10.4604L5.75857 10.9717C5.70294 11.5211 5.2124 11.9215 4.66293 11.8658C4.11345 11.8102 3.71311 11.3197 3.76875 10.7702L3.77612 10.6974L3.72735 10.6428C3.35937 10.231 3.39492 9.59878 3.80675 9.2308ZM14.1934 9.2308C14.6052 9.59878 14.6408 10.231 14.2728 10.6428L14.224 10.6974L14.2314 10.7702C14.287 11.3197 13.8867 11.8102 13.3372 11.8658C12.7877 11.9215 12.2972 11.5211 12.2416 10.9717L12.1898 10.4604C12.1615 10.1811 12.252 9.90274 12.439 9.69338L12.7814 9.3102C13.1494 8.89837 13.7816 8.86282 14.1934 9.2308ZM9.00007 14.4928L8.93309 14.5223C8.4277 14.745 7.83746 14.5159 7.61475 14.0105C7.39204 13.5051 7.6212 12.9148 8.12659 12.6921L8.59682 12.4849C8.85374 12.3717 9.14641 12.3717 9.40332 12.4849L9.87355 12.6921C10.3789 12.9148 10.6081 13.5051 10.3854 14.0105C10.1627 14.5159 9.57244 14.745 9.06705 14.5223L9.00007 14.4928ZM5.12657 14.3314C4.96471 14.1316 4.72632 13.9939 4.45029 13.966C3.90081 13.9103 3.41027 14.3107 3.35464 14.8602L3.30288 15.3714C3.26702 15.7255 3.42207 16.072 3.71 16.2812C3.99794 16.4903 4.37536 16.5307 4.70104 16.3872L5.17127 16.18C5.67666 15.9573 5.90582 15.3671 5.68311 14.8617C5.57123 14.6078 5.3666 14.4236 5.12657 14.3314ZM13.5499 13.966C14.0993 13.9103 14.5899 14.3107 14.6455 14.8602L14.6973 15.3714C14.7331 15.7255 14.5781 16.072 14.2901 16.2812C14.0022 16.4903 13.6248 16.5307 13.2991 16.3872L12.8289 16.18C12.3235 15.9573 12.0943 15.3671 12.317 14.8617C12.4289 14.6078 12.6335 14.4236 12.8736 14.3314C13.0354 14.1316 13.2738 13.9939 13.5499 13.966Z" fill="#5BC6EA"/>
</svg>
