<svg width="18" height="18" viewBox="0 0 18 18" fill="none" xmlns="http://www.w3.org/2000/svg">
<path fill-rule="evenodd" clip-rule="evenodd" d="M9.95927 2.03626L9.95928 2.03555C10.3667 2.18217 10.7507 2.37034 11.0263 2.59538C11.3152 2.83129 11.405 3.03493 11.405 3.23489C11.405 4.07194 11.1947 4.81815 10.9765 5.36348C10.8684 5.63382 10.7611 5.84783 10.6834 5.99038C10.6446 6.06145 10.6135 6.11415 10.5938 6.14655C10.5839 6.16273 10.577 6.17379 10.5733 6.17948L10.5706 6.18368C10.3859 6.4633 10.3535 6.81698 10.4845 7.12563C10.6161 7.43558 10.8948 7.65849 11.2261 7.71873L14.6805 8.34679C15.2388 8.44831 15.6009 8.99361 15.4778 9.5476L14.5129 13.8898C14.2913 14.8866 13.3545 15.5564 12.3396 15.4437L6.90501 14.8398V8.88218C6.97633 8.68458 7.14548 8.34149 7.42948 7.90714C7.75077 7.41575 8.16662 6.88749 8.61211 6.44199C9.23453 5.81958 9.55232 4.97332 9.72493 4.22193C9.90163 3.45272 9.95301 2.66208 9.95927 2.03626ZM6.18639 6.19923C6.48857 5.79719 6.83151 5.39417 7.1979 5.02778C7.43563 4.79005 7.63912 4.36871 7.7757 3.77416C7.90818 3.19745 7.95389 2.56383 7.95937 2.01625C7.96549 1.40448 8.23479 0.831921 8.67983 0.451938C9.13938 0.0595579 9.79987 -0.12995 10.4787 0.098736C11.0318 0.285059 11.7219 0.581262 12.2913 1.04629C12.8742 1.52227 13.405 2.24373 13.405 3.23489C13.405 4.33355 13.1465 5.29015 12.8802 5.98669L15.0383 6.37905C16.7133 6.68361 17.7995 8.31948 17.4302 9.98146L16.4652 14.3236C16.0222 16.3172 14.1485 17.657 12.1188 17.4314L6.43786 16.8002C5.98764 17.3356 5.26555 17.6268 4.51278 17.4762L1.60791 16.8953C0.590638 16.6918 -0.102194 15.7443 0.01237 14.7132L0.812284 7.51402C0.924824 6.50116 1.78095 5.73489 2.80005 5.73489H4.90501C5.39255 5.73489 5.83935 5.90934 6.18639 6.19923ZM4.90501 8.73489V7.73489L2.80005 7.73489L2.00014 14.9341L4.90501 15.5151V8.73489Z" fill="#5BC6EA"/>
</svg>
