<svg width="20" height="20" viewBox="0 0 20 20" fill="none" xmlns="http://www.w3.org/2000/svg">
<path fill-rule="evenodd" clip-rule="evenodd" d="M17.984 0.641682L18.4985 1.49917C17.984 0.641682 17.9837 0.641858 17.9834 0.642039L17.9828 0.642432L17.9813 0.643323L17.9777 0.64553L17.9677 0.651647L17.937 0.670734C17.9119 0.68652 17.8777 0.708461 17.8351 0.736684C17.7499 0.79312 17.6309 0.874743 17.4843 0.982586C17.1911 1.19818 16.7862 1.51917 16.3181 1.95388C15.6447 2.57916 14.8381 3.44185 14.0442 4.5666C13.8653 4.34234 13.6845 4.14588 13.5181 3.97957C13.2665 3.72794 13.033 3.53026 12.8604 3.39398C12.7737 3.32557 12.7015 3.27189 12.6488 3.2339C12.6224 3.21488 12.6008 3.19973 12.5847 3.18858L12.5647 3.17483L12.5579 3.17022L12.5553 3.16848L12.5542 3.16776L12.5537 3.16743C12.5535 3.16727 12.5532 3.16712 11.9985 3.99917L12.5532 3.16712C12.0937 2.86077 11.4728 2.98495 11.1665 3.44447C10.8607 3.90311 10.9838 4.52246 11.4412 4.82943L11.4463 4.83296C11.4524 4.83719 11.4635 4.84499 11.4792 4.85625C11.5104 4.8788 11.5593 4.91497 11.6211 4.96375C11.7453 5.06184 11.9181 5.20791 12.1039 5.39378C12.4875 5.77737 12.869 6.27276 13.0499 6.8154C13.1746 7.18955 13.5075 7.45545 13.9 7.49431C14.2925 7.53317 14.6711 7.33773 14.8668 6.99531C15.8082 5.34775 16.8649 4.17541 17.679 3.41947C18.0858 3.04168 18.431 2.76892 18.6691 2.59389C18.788 2.50642 18.88 2.44351 18.9393 2.40424C18.9689 2.38461 18.9904 2.37091 19.0029 2.36302L19.0137 2.35628C19.0138 2.35621 19.0139 2.35613 19.0141 2.35605L19.0148 2.35559C19.487 2.07097 19.6398 1.45766 19.356 0.984679C19.0719 0.511099 18.4576 0.357533 17.984 0.641682ZM5.49481 5.02627C4.84839 3.86679 3.27247 3.64724 2.33376 4.58591L1.68698 5.23266C1.61006 5.30958 1.53505 5.39709 1.46691 5.4949C-1.1191 9.20715 0.343244 13.6263 3.26971 16.5527C6.1962 19.4791 10.6154 20.9414 14.3278 18.3555C14.4256 18.2873 14.5131 18.2123 14.59 18.1354L15.2322 17.4932C16.1737 16.5518 15.9497 14.9705 14.7838 14.3276L12.3769 13.0003C11.3955 12.4591 10.161 12.8299 9.64015 13.8223L9.49524 14.0984C8.85837 13.858 7.95514 13.4151 7.20295 12.6717C6.45674 11.9342 5.99671 11.0152 5.74097 10.3543L5.9709 10.2444C7.01182 9.74669 7.41687 8.47389 6.85505 7.46614L5.49481 5.02627ZM3.10341 6.64466L3.74794 6.00015L4.62138 5.51321L3.74794 6.00016L5.10818 8.44003L4.81041 8.5824C3.98623 8.97646 3.45885 9.94929 3.82153 10.9326C4.11814 11.7368 4.71506 13.0249 5.79711 14.0942C6.88055 15.165 8.14672 15.7407 8.93404 16.0229C9.88621 16.3643 10.8238 15.8709 11.2316 15.0937L11.4111 14.7516L13.818 16.079L13.1781 16.7189C10.5706 18.5299 7.22953 17.684 4.68391 15.1385C2.13828 12.5929 1.29245 9.25196 3.10341 6.64466Z" fill="white"/>
</svg>
