<svg width="15" height="15" viewBox="0 0 15 15" fill="none" xmlns="http://www.w3.org/2000/svg">
<path fill-rule="evenodd" clip-rule="evenodd" d="M3 0C2.44772 0 2 0.447715 2 1C2 1.55228 2.44772 2 3 2H3.58579L0.292893 5.29289C-0.0976311 5.68342 -0.0976311 6.31658 0.292893 6.70711C0.683418 7.09763 1.31658 7.09763 1.70711 6.70711L5 3.41421V4C5 4.55228 5.44772 5 6 5C6.55228 5 7 4.55228 7 4V1C7 0.447715 6.55228 0 6 0H3ZM11 2C10.4477 2 10 1.55228 10 1C10 0.447715 10.4477 0 11 0H14C14.5523 0 15 0.447715 15 1V4C15 4.55228 14.5523 5 14 5C13.4477 5 13 4.55228 13 4V3.41421L2.70711 13.7071C2.31658 14.0976 1.68342 14.0976 1.29289 13.7071C0.902369 13.3166 0.902369 12.6834 1.29289 12.2929L11.5858 2H11ZM10 9C10 8.44771 10.4477 8 11 8H14C14.5523 8 15 8.44771 15 9V12C15 12.5523 14.5523 13 14 13C13.4477 13 13 12.5523 13 12V11.4142L9.70711 14.7071C9.31658 15.0976 8.68342 15.0976 8.29289 14.7071C7.90237 14.3166 7.90237 13.6834 8.29289 13.2929L11.5858 10H11C10.4477 10 10 9.55229 10 9Z" fill="white"/>
</svg>
