<svg width="15" height="19" viewBox="0 0 15 19" fill="none" xmlns="http://www.w3.org/2000/svg">
<path fill-rule="evenodd" clip-rule="evenodd" d="M12 1.00001C12 0.678564 11.8455 0.376716 11.5847 0.188765C11.3239 0.000813854 10.9887 -0.0503253 10.6838 0.051324L1.68377 3.05132C1.27543 3.18744 1 3.56958 1 4.00001V7C0.447715 7 0 7.44772 0 8C0 8.55229 0.447715 9 1 9V10C0.447715 10 0 10.4477 0 11C0 11.5523 0.447715 12 1 12V13C0.447715 13 0 13.4477 0 14C0 14.5523 0.447715 15 1 15V18C1 18.5523 1.44772 19 2 19H14C14.5523 19 15 18.5523 15 18V4.00001C15 3.44772 14.5523 3.00001 14 3.00001H12V1.00001ZM3 15V17H13V5.00001H11H3V7H4C4.55228 7 5 7.44772 5 8C5 8.55229 4.55228 9 4 9H3V10H4C4.55228 10 5 10.4477 5 11C5 11.5523 4.55228 12 4 12H3V13H4C4.55228 13 5 13.4477 5 14C5 14.5523 4.55228 15 4 15H3ZM10 2.38743V3.00001H8.16228L10 2.38743Z" fill="white"/>
</svg>
