<svg width="12" height="10" viewBox="0 0 12 10" fill="none" xmlns="http://www.w3.org/2000/svg">
<path fill-rule="evenodd" clip-rule="evenodd" d="M11.0001 1.00013L10.4701 0.152136C10.9384 -0.140575 11.5553 0.0017984 11.8481 0.470135C12.1404 0.937887 11.9987 1.55388 11.5318 1.84703C11.5316 1.84717 11.5314 1.8473 11.5312 1.84743C11.531 1.84751 11.5309 1.84759 11.5308 1.84767L11.5306 1.84779L11.528 1.84947L11.5037 1.86526C11.4803 1.88062 11.4428 1.90566 11.3925 1.94049C11.2919 2.01017 11.1401 2.11892 10.9479 2.26765C10.5631 2.56528 10.0175 3.02194 9.39467 3.64474C8.1482 4.89121 6.6009 6.79489 5.41043 9.41394C5.24469 9.77855 4.8774 10.0091 4.477 9.99987C4.0766 9.99063 3.72033 9.74339 3.57158 9.37152C3.12929 8.26578 2.45817 7.36566 1.88512 6.73531C1.60064 6.42238 1.34595 6.1821 1.16561 6.02257C1.07561 5.94295 1.00464 5.8839 0.958366 5.8464C0.935246 5.82767 0.918344 5.81436 0.908376 5.80659L0.89873 5.79914L0.899274 5.79954L0.899644 5.79982C0.458175 5.46837 0.368792 4.84182 0.700059 4.40013C1.03143 3.95831 1.65823 3.86876 2.10006 4.20013L1.51623 4.97858C2.10006 4.20014 2.10029 4.20031 2.10052 4.20048L2.10103 4.20086L2.10218 4.20173L2.10504 4.20389L2.11292 4.20988L2.13715 4.22859C2.15697 4.24402 2.18401 4.26537 2.21753 4.29254C2.28454 4.34684 2.37763 4.4245 2.49076 4.52457C2.71667 4.72442 3.02448 5.01539 3.365 5.38996C3.71698 5.77714 4.11003 6.26035 4.48469 6.83105C5.61862 4.83449 6.89924 3.31173 7.98045 2.23053C8.67015 1.54083 9.28074 1.02873 9.72412 0.68574C9.94592 0.51416 10.1262 0.38463 10.2541 0.296106C10.318 0.251835 10.3689 0.217792 10.4053 0.193847C10.4236 0.181874 10.4382 0.172423 10.449 0.165477L10.4624 0.156934L10.467 0.154068L10.4687 0.152985L10.4694 0.152531C10.4698 0.152329 10.4701 0.152136 11.0001 1.00013ZM0.89873 5.79914L0.898668 5.79909L0.897988 5.79858C0.897771 5.79841 0.898022 5.7986 0.89873 5.79914Z" fill="white"/>
</svg>
