<svg width="12" height="14" viewBox="0 0 12 14" fill="none" xmlns="http://www.w3.org/2000/svg">
<path fill-rule="evenodd" clip-rule="evenodd" d="M1.94895 9.68377C1.77431 9.15983 1.20799 8.87667 0.684043 9.05132C0.1601 9.22596 -0.12306 9.79228 0.0515878 10.3162L0.823664 12.6325C1.09589 13.4491 1.86017 14 2.72103 14L9.27951 14C10.1404 14 10.9046 13.4491 11.1769 12.6325L11.949 10.3162C12.1236 9.79228 11.8404 9.22596 11.3165 9.05132C10.7926 8.87667 10.2262 9.15983 10.0516 9.68377L9.27951 12L2.72103 12L1.94895 9.68377ZM3.7075 5.2929C3.31698 4.90237 2.68381 4.90237 2.29329 5.2929C1.90276 5.68342 1.90276 6.31658 2.29329 6.70711L5.29329 9.70711C5.68381 10.0976 6.31698 10.0976 6.7075 9.70711L9.7075 6.70711C10.098 6.31658 10.098 5.68342 9.7075 5.29289C9.31698 4.90237 8.68381 4.90237 8.29329 5.29289L7.00039 6.58579L7.00039 1C7.00039 0.447716 6.55268 1.62092e-06 6.00039 1.64506e-06C5.44811 1.6692e-06 5.00039 0.447716 5.00039 1L5.00039 6.58579L3.7075 5.2929Z" fill="#5BC6EA"/>
</svg>
