<svg width="10" height="12" viewBox="0 0 10 12" fill="none" xmlns="http://www.w3.org/2000/svg">
<path fill-rule="evenodd" clip-rule="evenodd" d="M1 0C1.55228 0 2 0.447715 2 1V8.58579L4.29289 6.29289C4.68342 5.90237 5.31658 5.90237 5.70711 6.29289L8 8.58579V1C8 0.447715 8.44772 0 9 0C9.55229 0 10 0.447715 10 1V11C10 11.4045 9.75636 11.7691 9.38268 11.9239C9.00901 12.0787 8.57889 11.9931 8.29289 11.7071L5 8.41421L1.70711 11.7071C1.42111 11.9931 0.990991 12.0787 0.617317 11.9239C0.243642 11.7691 0 11.4045 0 11V1C0 0.447715 0.447715 0 1 0Z" fill="#5BC6EA"/>
</svg>
