<svg width="17" height="16" viewBox="0 0 17 16" fill="none" xmlns="http://www.w3.org/2000/svg">
<path d="M8.66149 2.70822C8.95275 2.29965 9.45615 2 10.299 2C11.0624 2 11.53 2.24844 11.8134 2.55613C12.1092 2.87729 12.299 3.3671 12.299 4L12.2989 3.99469C12.2988 3.99469 12.2987 3.9967 12.2983 4.001C12.2973 4.01374 12.2947 4.0466 12.2881 4.10662C12.2787 4.19161 12.2644 4.30255 12.246 4.4341C12.2093 4.6964 12.1586 5.02216 12.104 5.34979C12.0494 5.67746 11.9919 6.00077 11.942 6.25828C11.8973 6.4886 11.8685 6.6124 11.8592 6.65244C11.8566 6.66389 11.8555 6.66848 11.8561 6.66675C11.8035 6.81555 11.6822 7.01045 11.4869 7.32437C11.4495 7.38452 11.4093 7.44904 11.3664 7.51845C11.2533 7.70151 11.1227 7.91918 11.02 8.13703C10.9269 8.33434 10.799 8.64765 10.799 9C10.799 9.12556 10.8226 9.25 10.8687 9.3668L11.799 9C10.8687 9.3668 10.8686 9.36671 10.8687 9.3668L10.8703 9.37103L10.8731 9.37801L10.882 9.39993C10.8894 9.41798 10.8997 9.44281 10.9128 9.4736C10.939 9.5351 10.9766 9.62083 11.0247 9.72407C11.1203 9.92923 11.2607 10.2102 11.4392 10.5107C11.4692 10.5612 11.5036 10.609 11.542 10.6534C12.1815 11.3943 12.9207 11.7809 13.4889 12.0559L13.6362 12.1271C14.1439 12.3722 14.3767 12.4846 14.5295 12.6409C14.5361 12.6559 14.5459 12.6803 14.5575 12.7163C14.5903 12.8177 14.6229 12.9624 14.653 13.1546C14.7384 13.7002 15.2499 14.0734 15.7955 13.988C16.3412 13.9026 16.7143 13.3911 16.6289 12.8454C16.5907 12.6012 16.5385 12.3421 16.4605 12.1009C16.3867 11.8729 16.265 11.58 16.0441 11.3331C15.6045 10.8419 14.9761 10.5462 14.5306 10.3366C14.4702 10.3081 14.4131 10.2813 14.3603 10.2557C13.8715 10.0191 13.461 9.78936 13.1123 9.40989C13.0102 9.23199 12.9248 9.06344 12.8601 8.92717C12.9098 8.83087 12.9784 8.71441 13.0676 8.57009C13.0931 8.52881 13.1219 8.48309 13.153 8.43373C13.3395 8.13764 13.6083 7.71102 13.7418 7.33325C13.7998 7.16908 13.8587 6.87976 13.9054 6.63893C13.9596 6.3594 14.0202 6.01801 14.0768 5.6786C14.1334 5.33916 14.187 4.99548 14.2267 4.71128C14.2616 4.46199 14.299 4.17258 14.299 4C14.299 2.97605 13.9887 1.96586 13.2845 1.20123C12.5679 0.42313 11.5355 0 10.299 0C8.6298 0 7.3767 0.773628 6.74486 2.02469C6.58007 2.00829 6.41098 2 6.23789 2C5.00138 2 3.96894 2.42313 3.25232 3.20123C2.5481 3.96586 2.23789 4.97605 2.23789 6C2.23789 6.17258 2.27523 6.46199 2.31012 6.71128C2.34989 6.99548 2.40346 7.33916 2.46004 7.6786C2.51661 8.01801 2.57721 8.3594 2.6314 8.63893C2.67809 8.87976 2.73703 9.16908 2.79505 9.33325C2.92857 9.71102 3.1973 10.1376 3.38381 10.4337C3.41489 10.4831 3.4437 10.5288 3.46921 10.5701C3.55844 10.7144 3.62704 10.8309 3.67679 10.9272C3.61205 11.0635 3.5267 11.232 3.42453 11.4099C3.07592 11.7893 2.6655 12.0191 2.17664 12.2557C2.12386 12.2813 2.06677 12.3081 2.00632 12.3366C1.56089 12.5462 0.932338 12.8419 0.492744 13.3331C0.238288 13.6174 0.110941 13.9687 0.0376533 14.2291C-0.111971 14.7607 0.197706 15.313 0.729336 15.4626C1.26097 15.6122 1.81323 15.3025 1.96286 14.7709C1.98105 14.7063 1.99679 14.6646 2.0073 14.641C2.16008 14.4847 2.39285 14.3723 2.90059 14.1272L3.04797 14.0559C3.61626 13.7809 4.35546 13.3943 4.99493 12.6534C5.03324 12.609 5.06758 12.5613 5.09753 12.5109C5.27618 12.2103 5.41656 11.9292 5.5122 11.724C5.56034 11.6207 5.59793 11.535 5.62411 11.4735C5.63722 11.4427 5.64753 11.4178 5.65491 11.3997L5.66381 11.3778L5.6666 11.3708L5.66757 11.3684L5.66796 11.3674C5.66799 11.3673 5.66827 11.3666 4.73789 11L5.66796 11.3674C5.71396 11.2506 5.73789 11.1255 5.73789 11C5.73789 10.6476 5.60989 10.3343 5.51687 10.137C5.41417 9.91919 5.28357 9.70151 5.1704 9.51845C5.12757 9.44916 5.08748 9.38473 5.05011 9.32467C4.85478 9.01075 4.73332 8.81555 4.68073 8.66675C4.68134 8.66848 4.68027 8.66389 4.67761 8.65243C4.66829 8.61239 4.6395 8.48859 4.59485 8.25828C4.54492 8.00077 4.48744 7.67746 4.43283 7.34979C4.37822 7.02216 4.32752 6.6964 4.29082 6.4341C4.27241 6.30255 4.25817 6.19161 4.24876 6.10662C4.24211 6.04663 4.23953 6.01378 4.23852 6.00102C4.23819 5.99671 4.23803 5.99469 4.23795 5.99469L4.23789 6C4.23789 5.3671 4.42768 4.87729 4.72346 4.55613C5.00684 4.24844 5.4744 4 6.23789 4C7.00138 4 7.46894 4.24844 7.75232 4.55613C8.0481 4.87729 8.23789 5.3671 8.23789 6L8.23783 5.99469C8.23775 5.99469 8.23759 5.9967 8.23726 6.001C8.23625 6.01374 8.23367 6.0466 8.22702 6.10662C8.21761 6.19161 8.20337 6.30255 8.18496 6.4341C8.14826 6.6964 8.09756 7.02216 8.04295 7.34979C7.98834 7.67746 7.93086 8.00077 7.88093 8.25828C7.83629 8.48858 7.80749 8.61238 7.79817 8.65243C7.79551 8.66388 7.79444 8.66848 7.79505 8.66675C7.74246 8.81555 7.62119 9.01044 7.42587 9.32435C7.38844 9.3845 7.34828 9.44904 7.30538 9.51845C7.19221 9.70151 7.06161 9.91918 6.9589 10.137C6.86588 10.3343 6.73789 10.6476 6.73789 11C6.73789 11.1256 6.76154 11.25 6.80759 11.3668L7.73789 11C6.80759 11.3668 6.80755 11.3667 6.80759 11.3668L6.80829 11.3686L6.80927 11.371L6.81205 11.378L6.82095 11.3999C6.82833 11.418 6.83863 11.4428 6.85174 11.4736C6.87793 11.5351 6.91552 11.6208 6.96365 11.7241C7.05928 11.9292 7.19962 12.2102 7.37816 12.5107C7.40815 12.5612 7.44254 12.609 7.48091 12.6534C8.12046 13.3943 8.85961 13.7809 9.42787 14.0559L9.57512 14.1271C10.0829 14.3722 10.3157 14.4846 10.4685 14.6409C10.479 14.6646 10.4947 14.7062 10.5129 14.7709C10.6625 15.3025 11.2147 15.6122 11.7464 15.4626C12.278 15.313 12.5877 14.7608 12.4381 14.2291C12.3648 13.9687 12.2375 13.6174 11.983 13.3331C11.5434 12.8419 10.915 12.5462 10.4696 12.3366C10.4091 12.3081 10.352 12.2813 10.2992 12.2557C9.81044 12.0191 9.39999 11.7894 9.05128 11.4099C8.94912 11.232 8.86378 11.0634 8.79901 10.9272C8.84876 10.8309 8.91735 10.7144 9.00657 10.5701C9.03206 10.5289 9.06083 10.4832 9.09189 10.4339C9.2784 10.1378 9.54721 9.71102 9.68073 9.33325C9.73875 9.16908 9.79769 8.87976 9.84438 8.63893C9.89857 8.3594 9.95917 8.01801 10.0157 7.6786C10.0723 7.33916 10.1259 6.99548 10.1657 6.71128C10.2005 6.46199 10.2379 6.17258 10.2379 6C10.2379 4.97605 9.92768 3.96586 9.22346 3.20123C9.05342 3.0166 8.8656 2.85197 8.66149 2.70822Z" fill="white"/>
</svg>
