<svg width="16" height="16" viewBox="0 0 16 16" fill="none" xmlns="http://www.w3.org/2000/svg">
<path fill-rule="evenodd" clip-rule="evenodd" d="M8 2C4.68629 2 2 4.68629 2 8C2 11.3137 4.68629 14 8 14C11.3137 14 14 11.3137 14 8C14 7.44772 14.4477 7 15 7C15.5523 7 16 7.44772 16 8C16 12.4183 12.4183 16 8 16C3.58172 16 0 12.4183 0 8C0 3.58172 3.58172 0 8 0C8.55228 0 9 0.447715 9 1C9 1.55228 8.55228 2 8 2ZM8 7C7.44772 7 7 7.44772 7 8C7 8.55228 7.44772 9 8 9C8.55228 9 9 8.55228 9 8C9 7.44772 8.55228 7 8 7ZM5 8C5 6.34315 6.34315 5 8 5C8.46315 5 8.90178 5.10495 9.29342 5.29237L12.2929 2.29289C12.6834 1.90237 13.3166 1.90237 13.7071 2.29289C14.0976 2.68342 14.0976 3.31658 13.7071 3.70711L10.7076 6.70658C10.895 7.09822 11 7.53685 11 8C11 9.65685 9.65685 11 8 11C6.34315 11 5 9.65685 5 8Z" fill="white"/>
</svg>
