<svg width="14" height="13" viewBox="0 0 14 13" fill="none" xmlns="http://www.w3.org/2000/svg">
<path fill-rule="evenodd" clip-rule="evenodd" d="M6 1C6 0.447715 5.55228 0 5 0C4.44772 0 4 0.447715 4 1V12C4 12.5523 4.44772 13 5 13C5.55228 13 6 12.5523 6 12V1ZM2 5C2 4.44772 1.55228 4 1 4C0.447715 4 0 4.44772 0 5V12C0 12.5523 0.447715 13 1 13C1.55228 13 2 12.5523 2 12V5ZM9 3C9.55229 3 10 3.44772 10 4V12C10 12.5523 9.55229 13 9 13C8.44772 13 8 12.5523 8 12V4C8 3.44772 8.44771 3 9 3ZM14 6C14 5.44772 13.5523 5 13 5C12.4477 5 12 5.44772 12 6V12C12 12.5523 12.4477 13 13 13C13.5523 13 14 12.5523 14 12V6Z" fill="#4C4C4C"/>
</svg>
