<svg width="18" height="17" viewBox="0 0 18 17" fill="none" xmlns="http://www.w3.org/2000/svg">
<path fill-rule="evenodd" clip-rule="evenodd" d="M9.00007 0C9.35598 0 9.68506 0.18916 9.86418 0.4967L12.2287 4.55624L16.8202 5.55052C17.168 5.62584 17.4496 5.88036 17.5596 6.21885C17.6696 6.55733 17.5914 6.92876 17.3542 7.19416L14.224 10.6974L14.6973 15.3714C14.7331 15.7255 14.5781 16.072 14.2901 16.2812C14.0022 16.4903 13.6248 16.5307 13.2991 16.3872L9.00007 14.4928L4.70104 16.3872C4.37536 16.5307 3.99794 16.4903 3.71 16.2812C3.42207 16.072 3.26702 15.7255 3.30288 15.3714L3.77612 10.6974L0.645928 7.19416C0.408793 6.92876 0.330583 6.55733 0.440563 6.21885C0.550543 5.88036 0.832137 5.62584 1.17998 5.55052L5.77149 4.55624L8.13596 0.4967C8.31509 0.18916 8.64417 0 9.00007 0ZM9.00007 2.98689L7.27793 5.94362C7.13663 6.18623 6.89985 6.35825 6.62546 6.41767L3.28126 7.14185L5.56111 9.69338C5.74818 9.90274 5.83862 10.1811 5.81034 10.4604L5.46565 13.8647L8.59682 12.4849C8.85374 12.3717 9.14641 12.3717 9.40332 12.4849L12.5345 13.8647L12.1898 10.4604C12.1615 10.1811 12.252 9.90274 12.439 9.69338L14.7189 7.14185L11.3747 6.41767C11.1003 6.35825 10.8635 6.18623 10.7222 5.94362L9.00007 2.98689Z" fill="#5BC6EA"/>
</svg>
