<svg width="18" height="18" viewBox="0 0 18 18" fill="none" xmlns="http://www.w3.org/2000/svg">
<path fill-rule="evenodd" clip-rule="evenodd" d="M9.95927 15.9637L9.95928 15.9645C10.3667 15.8178 10.7507 15.6297 11.0263 15.4046C11.3152 15.1687 11.405 14.9651 11.405 14.7651C11.405 13.9281 11.1947 13.1819 10.9765 12.6365C10.8684 12.3662 10.7611 12.1522 10.6834 12.0096C10.6446 11.9385 10.6135 11.8859 10.5938 11.8535C10.5839 11.8373 10.577 11.8262 10.5733 11.8205L10.5706 11.8163C10.3859 11.5367 10.3535 11.183 10.4845 10.8744C10.6161 10.5644 10.8948 10.3415 11.2261 10.2813L14.6805 9.65321C15.2388 9.55169 15.6009 9.00639 15.4778 8.4524L14.5129 4.11024C14.2913 3.11343 13.3545 2.44357 12.3396 2.55633L6.90501 3.16016V9.11782C6.97633 9.31542 7.14548 9.65851 7.42948 10.0929C7.75077 10.5843 8.16662 11.1125 8.61211 11.558C9.23453 12.1804 9.55232 13.0267 9.72493 13.7781C9.90163 14.5473 9.95301 15.3379 9.95927 15.9637ZM6.18639 11.8008C6.48857 12.2028 6.83151 12.6058 7.1979 12.9722C7.43563 13.2099 7.63912 13.6313 7.7757 14.2258C7.90818 14.8026 7.95389 15.4362 7.95937 15.9837C7.96549 16.5955 8.23479 17.1681 8.67983 17.5481C9.13938 17.9404 9.79987 18.13 10.4787 17.9013C11.0318 17.7149 11.7219 17.4187 12.2913 16.9537C12.8742 16.4777 13.405 15.7563 13.405 14.7651C13.405 13.6664 13.1465 12.7098 12.8802 12.0133L15.0383 11.6209C16.7133 11.3164 17.7995 9.68052 17.4302 8.01854L16.4652 3.67637C16.0222 1.68277 14.1485 0.34304 12.1188 0.568562L6.43786 1.19975C5.98764 0.664442 5.26555 0.373201 4.51278 0.523756L1.60791 1.10473C0.590638 1.30818 -0.102194 2.25568 0.01237 3.28675L0.812284 10.486C0.924824 11.4988 1.78095 12.2651 2.80005 12.2651H4.90501C5.39255 12.2651 5.83935 12.0907 6.18639 11.8008ZM4.90501 9.26511V10.2651L2.80005 10.2651L2.00014 3.06589L4.90501 2.48492V9.26511Z" fill="#5BC6EA"/>
</svg>
